<?xml version="1.0" encoding="UTF-8" standalone="no"?>
<!DOCTYPE svg PUBLIC "-//W3C//DTD SVG 1.1//EN"
 "http://www.w3.org/Graphics/SVG/1.1/DTD/svg11.dtd">
<!-- Generated by graphviz version 2.40.1 (20161225.0304)
 -->
<!-- Title: %3 Pages: 1 -->
<svg width="638pt" height="260pt"
 viewBox="0.00 0.00 638.07 260.00" xmlns="http://www.w3.org/2000/svg" xmlns:xlink="http://www.w3.org/1999/xlink">
<g id="graph0" class="graph" transform="scale(1 1) rotate(0) translate(4 256)">
<title>%3</title>
<polygon fill="#ffffff" stroke="transparent" points="-4,4 -4,-256 634.0675,-256 634.0675,4 -4,4"/>
<!-- [root] docker_image.image_id -->
<g id="node1" class="node">
<title>[root] docker_image.image_id</title>
<polygon fill="none" stroke="#000000" points="428.9901,-108 278.2029,-108 278.2029,-72 428.9901,-72 428.9901,-108"/>
<text text-anchor="middle" x="353.5965" y="-85.8" font-family="Times,serif" font-size="14.00" fill="#000000">docker_image.image_id</text>
</g>
<!-- [root] provider.docker -->
<g id="node2" class="node">
<title>[root] provider.docker</title>
<polygon fill="none" stroke="#000000" points="353.5965,-36 260.3346,-18 353.5965,0 446.8584,-18 353.5965,-36"/>
<text text-anchor="middle" x="353.5965" y="-13.8" font-family="Times,serif" font-size="14.00" fill="#000000">provider.docker</text>
</g>
<!-- [root] docker_image.image_id&#45;&gt;[root] provider.docker -->
<g id="edge1" class="edge">
<title>[root] docker_image.image_id&#45;&gt;[root] provider.docker</title>
<path fill="none" stroke="#000000" d="M353.5965,-71.8314C353.5965,-64.131 353.5965,-54.9743 353.5965,-46.4166"/>
<polygon fill="#000000" stroke="#000000" points="357.0966,-46.4132 353.5965,-36.4133 350.0966,-46.4133 357.0966,-46.4132"/>
</g>
<!-- [root] meta.count&#45;boundary (count boundary fixup) -->
<g id="node3" class="node">
<title>[root] meta.count&#45;boundary (count boundary fixup)</title>
<ellipse fill="none" stroke="#000000" cx="191.5965" cy="-162" rx="191.6931" ry="18"/>
<text text-anchor="middle" x="191.5965" y="-157.8" font-family="Times,serif" font-size="14.00" fill="#000000">[root] meta.count&#45;boundary (count boundary fixup)</text>
</g>
<!-- [root] meta.count&#45;boundary (count boundary fixup)&#45;&gt;[root] docker_image.image_id -->
<g id="edge2" class="edge">
<title>[root] meta.count&#45;boundary (count boundary fixup)&#45;&gt;[root] docker_image.image_id</title>
<path fill="none" stroke="#000000" d="M231.2262,-144.3868C253.0432,-134.6903 280.3339,-122.5612 303.6035,-112.2191"/>
<polygon fill="#000000" stroke="#000000" points="305.2512,-115.317 312.9678,-108.0572 302.4082,-108.9203 305.2512,-115.317"/>
</g>
<!-- [root] provider.docker (close) -->
<g id="node4" class="node">
<title>[root] provider.docker (close)</title>
<ellipse fill="none" stroke="#000000" cx="515.5965" cy="-162" rx="114.4419" ry="18"/>
<text text-anchor="middle" x="515.5965" y="-157.8" font-family="Times,serif" font-size="14.00" fill="#000000">[root] provider.docker (close)</text>
</g>
<!-- [root] provider.docker (close)&#45;&gt;[root] docker_image.image_id -->
<g id="edge3" class="edge">
<title>[root] provider.docker (close)&#45;&gt;[root] docker_image.image_id</title>
<path fill="none" stroke="#000000" d="M477.2048,-144.937C455.1503,-135.135 427.2045,-122.7147 403.466,-112.1642"/>
<polygon fill="#000000" stroke="#000000" points="404.8183,-108.9352 394.2587,-108.0721 401.9753,-115.3319 404.8183,-108.9352"/>
</g>
<!-- [root] root -->
<g id="node5" class="node">
<title>[root] root</title>
<ellipse fill="none" stroke="#000000" cx="353.5965" cy="-234" rx="46.8976" ry="18"/>
<text text-anchor="middle" x="353.5965" y="-229.8" font-family="Times,serif" font-size="14.00" fill="#000000">[root] root</text>
</g>
<!-- [root] root&#45;&gt;[root] meta.count&#45;boundary (count boundary fixup) -->
<g id="edge4" class="edge">
<title>[root] root&#45;&gt;[root] meta.count&#45;boundary (count boundary fixup)</title>
<path fill="none" stroke="#000000" d="M322.7442,-220.2879C299.5042,-209.959 267.1842,-195.5945 240.4445,-183.7102"/>
<polygon fill="#000000" stroke="#000000" points="241.8028,-180.4838 231.2432,-179.6207 238.9598,-186.8805 241.8028,-180.4838"/>
</g>
<!-- [root] root&#45;&gt;[root] provider.docker (close) -->
<g id="edge5" class="edge">
<title>[root] root&#45;&gt;[root] provider.docker (close)</title>
<path fill="none" stroke="#000000" d="M384.4488,-220.2879C408.0173,-209.813 440.9243,-195.1876 467.8789,-183.2078"/>
<polygon fill="#000000" stroke="#000000" points="469.4232,-186.3517 477.1398,-179.0919 466.5802,-179.955 469.4232,-186.3517"/>
</g>
</g>
</svg>
