<?xml version="1.0" encoding="UTF-8" standalone="no"?>
<!DOCTYPE svg PUBLIC "-//W3C//DTD SVG 1.1//EN"
 "http://www.w3.org/Graphics/SVG/1.1/DTD/svg11.dtd">
<!-- Generated by graphviz version 2.40.1 (20161225.0304)
 -->
<!-- Title: test123 Pages: 1 -->
<svg width="311pt" height="267pt"
 viewBox="0.00 0.00 310.91 266.99" xmlns="http://www.w3.org/2000/svg" xmlns:xlink="http://www.w3.org/1999/xlink">
<g id="graph0" class="graph" transform="scale(1 1) rotate(0) translate(4 262.9908)">
<title>test123</title>
<polygon fill="#ffffff" stroke="transparent" points="-4,4 -4,-262.9908 306.9062,-262.9908 306.9062,4 -4,4"/>
<!-- a -->
<g id="node1" class="node">
<title>a</title>
<ellipse fill="none" stroke="#000000" cx="275.9062" cy="-240.9908" rx="27" ry="18"/>
<text text-anchor="middle" x="275.9062" y="-236.7908" font-family="Times,serif" font-size="14.00" fill="#000000">a</text>
</g>
<!-- b -->
<g id="node2" class="node">
<title>b</title>
<polygon fill="none" stroke="#000000" points="77.9062,-185.9908 23.9062,-185.9908 23.9062,-149.9908 77.9062,-149.9908 77.9062,-185.9908"/>
<text text-anchor="middle" x="50.9062" y="-163.7908" font-family="Times,serif" font-size="14.00" fill="#000000">b</text>
</g>
<!-- a&#45;&gt;b -->
<g id="edge1" class="edge">
<title>a&#45;&gt;b</title>
<path fill="none" stroke="#000000" d="M251.5269,-233.2387C218.3307,-222.6627 157.0667,-203.0721 104.9062,-185.9908 99.311,-184.1585 93.3953,-182.2042 87.6115,-180.2838"/>
<polygon fill="#000000" stroke="#000000" points="88.6754,-176.9492 78.0818,-177.1116 86.4645,-183.5909 88.6754,-176.9492"/>
</g>
<!-- x -->
<g id="node4" class="node">
<title>x</title>
<ellipse fill="none" stroke="#000000" cx="140.9062" cy="-167.9908" rx="27" ry="18"/>
<text text-anchor="middle" x="140.9062" y="-163.7908" font-family="Times,serif" font-size="14.00" fill="#000000">x</text>
</g>
<!-- a&#45;&gt;x -->
<g id="edge3" class="edge">
<title>a&#45;&gt;x</title>
<path fill="none" stroke="#000000" d="M254.8124,-229.5846C232.3565,-217.4418 196.6196,-198.1173 171.166,-184.3535"/>
<polygon fill="#000000" stroke="#000000" points="172.7585,-181.2357 162.2973,-179.5579 169.4289,-187.3932 172.7585,-181.2357"/>
</g>
<!-- y -->
<g id="node5" class="node">
<title>y</title>
<ellipse fill="none" stroke="#000000" cx="212.9062" cy="-167.9908" rx="27" ry="18"/>
<text text-anchor="middle" x="212.9062" y="-163.7908" font-family="Times,serif" font-size="14.00" fill="#000000">y</text>
</g>
<!-- a&#45;&gt;y -->
<g id="edge4" class="edge">
<title>a&#45;&gt;y</title>
<path fill="none" stroke="#000000" d="M262.2361,-225.1509C253.7328,-215.2979 242.6448,-202.4499 233.1354,-191.431"/>
<polygon fill="#000000" stroke="#000000" points="235.7328,-189.0837 226.5495,-183.7998 230.4334,-193.6571 235.7328,-189.0837"/>
</g>
<!-- z -->
<g id="node6" class="node">
<title>z</title>
<ellipse fill="none" stroke="#000000" cx="275.9062" cy="-42.9954" rx="27" ry="18"/>
<text text-anchor="middle" x="275.9062" y="-38.7954" font-family="Times,serif" font-size="14.00" fill="#000000">z</text>
</g>
<!-- a&#45;&gt;z -->
<g id="edge5" class="edge">
<title>a&#45;&gt;z</title>
<path fill="none" stroke="#000000" d="M275.9062,-222.7188C275.9062,-188.094 275.9062,-112.7039 275.9062,-71.4203"/>
<polygon fill="#000000" stroke="#000000" points="279.4063,-71.2232 275.9062,-61.2233 272.4063,-71.2233 279.4063,-71.2232"/>
<text text-anchor="middle" x="281.351" y="-163.7908" font-family="Times,serif" font-size="14.00" fill="#000000">hi</text>
</g>
<!-- c -->
<g id="node3" class="node">
<title>c</title>
<ellipse fill="#0000ff" stroke="#0000ff" cx="50.9062" cy="-42.9954" rx="50.8125" ry="42.9908"/>
<text text-anchor="middle" x="50.9062" y="-50.1978" font-family="Palatino Linotype,serif" font-style="italic" font-size="24.00" fill="#ff0000">hello</text>
<text text-anchor="middle" x="50.9062" y="-23.7954" font-family="Palatino Linotype,serif" font-style="italic" font-size="24.00" fill="#ff0000">world</text>
</g>
<!-- b&#45;&gt;c -->
<g id="edge2" class="edge">
<title>b&#45;&gt;c</title>
<path fill="none" stroke="#000000" d="M50.9062,-149.8154C50.9062,-135.6964 50.9062,-115.3597 50.9062,-96.2117"/>
<polygon fill="#000000" stroke="#000000" points="54.4063,-96.0459 50.9062,-86.0459 47.4063,-96.0459 54.4063,-96.0459"/>
</g>
<!-- b&#45;&gt;x -->
<g id="edge7" class="edge">
<title>b&#45;&gt;x</title>
<path fill="none" stroke="#ff0000" stroke-dasharray="5,2" d="M77.9765,-167.9908C86.575,-167.9908 95.1736,-167.9908 103.7721,-167.9908"/>
<polygon fill="#ff0000" stroke="#ff0000" points="103.8661,-171.4909 113.8661,-167.9908 103.866,-164.4909 103.8661,-171.4909"/>
</g>
<!-- x&#45;&gt;z -->
<g id="edge6" class="edge">
<title>x&#45;&gt;z</title>
<path fill="none" stroke="#000000" d="M156.1192,-152.7735C169.3224,-139.6678 189.0382,-120.3387 206.6923,-103.9908 221.2902,-90.473 238.0177,-75.7124 251.371,-64.0979"/>
<polygon fill="#000000" stroke="#000000" points="253.936,-66.5065 259.2002,-57.312 249.3512,-61.2169 253.936,-66.5065"/>
<text text-anchor="middle" x="233.5131" y="-120.7908" font-family="Times,serif" font-size="14.00" fill="#000000">multi&#45;line</text>
<text text-anchor="middle" x="233.5131" y="-106.7908" font-family="Times,serif" font-size="14.00" fill="#000000">label</text>
</g>
</g>
</svg>
